<mxfile host="app.diagrams.net" modified="2023-02-06T11:36:33.830Z" agent="5.0 (Macintosh; Intel Mac OS X 10_15_7) AppleWebKit/537.36 (KHTML, like Gecko) Chrome/109.0.0.0 Safari/537.36" etag="dmRXBVSfIDokS3tf5cCb" version="20.8.16" type="github">
  <diagram name="第 1 页" id="cxOlcbB1qj-5qwUDUt3x">
    <mxGraphModel dx="824" dy="561" grid="1" gridSize="10" guides="1" tooltips="1" connect="1" arrows="1" fold="1" page="1" pageScale="1" pageWidth="827" pageHeight="1169" math="0" shadow="0">
      <root>
        <mxCell id="0" />
        <mxCell id="1" parent="0" />
        <mxCell id="0MEXVl722VAajQtSkiim-1" value="tiptap迁移后端工程 java" style="rounded=1;whiteSpace=wrap;html=1;fillColor=none;verticalAlign=bottom;arcSize=4;dashed=1;" parent="1" vertex="1">
          <mxGeometry x="40" y="40" width="460" height="320" as="geometry" />
        </mxCell>
        <mxCell id="0MEXVl722VAajQtSkiim-2" value="标准、规范" style="rounded=1;whiteSpace=wrap;html=1;fillColor=#dae8fc;strokeColor=#6c8ebf;arcSize=6;verticalAlign=top;" parent="1" vertex="1">
          <mxGeometry x="70" y="60" width="120" height="100" as="geometry" />
        </mxCell>
        <mxCell id="0MEXVl722VAajQtSkiim-3" value="静态资源替换规范" style="rounded=1;whiteSpace=wrap;html=1;fillColor=#dae8fc;strokeColor=#6c8ebf;verticalAlign=top;arcSize=8;" parent="1" vertex="1">
          <mxGeometry x="70" y="170" width="120" height="110" as="geometry" />
        </mxCell>
        <mxCell id="0MEXVl722VAajQtSkiim-4" value="批注、修订" style="rounded=1;whiteSpace=wrap;html=1;fillColor=#dae8fc;strokeColor=#6c8ebf;verticalAlign=top;arcSize=7;" parent="1" vertex="1">
          <mxGeometry x="230" y="60" width="120" height="100" as="geometry" />
        </mxCell>
        <mxCell id="0MEXVl722VAajQtSkiim-5" value="全局研报唯一编号" style="rounded=1;whiteSpace=wrap;html=1;fillColor=#fad7ac;strokeColor=#b46504;" parent="1" vertex="1">
          <mxGeometry x="80" y="84" width="120" height="30" as="geometry" />
        </mxCell>
        <mxCell id="mCFDCRky8Mi1W4elYaA0-1" value="修订、批注版本控制" style="rounded=1;whiteSpace=wrap;html=1;fillColor=#fad7ac;strokeColor=#b46504;" vertex="1" parent="1">
          <mxGeometry x="240" y="125" width="120" height="30" as="geometry" />
        </mxCell>
        <mxCell id="mCFDCRky8Mi1W4elYaA0-4" value="图片地址&amp;nbsp;" style="rounded=1;whiteSpace=wrap;html=1;fillColor=#fad7ac;strokeColor=#b46504;" vertex="1" parent="1">
          <mxGeometry x="80" y="200" width="120" height="30" as="geometry" />
        </mxCell>
        <mxCell id="mCFDCRky8Mi1W4elYaA0-5" value="研报地址" style="rounded=1;whiteSpace=wrap;html=1;fillColor=#fad7ac;strokeColor=#b46504;" vertex="1" parent="1">
          <mxGeometry x="80" y="240" width="120" height="30" as="geometry" />
        </mxCell>
        <mxCell id="mCFDCRky8Mi1W4elYaA0-6" value="审批状态" style="rounded=1;whiteSpace=wrap;html=1;fillColor=#dae8fc;strokeColor=#6c8ebf;verticalAlign=top;arcSize=7;" vertex="1" parent="1">
          <mxGeometry x="370" y="60" width="120" height="30" as="geometry" />
        </mxCell>
        <mxCell id="mCFDCRky8Mi1W4elYaA0-7" value="研报存储的规范" style="rounded=1;whiteSpace=wrap;html=1;fillColor=#fad7ac;strokeColor=#b46504;" vertex="1" parent="1">
          <mxGeometry x="80" y="120" width="120" height="30" as="geometry" />
        </mxCell>
        <mxCell id="mCFDCRky8Mi1W4elYaA0-8" value="修订、批注增删改查" style="rounded=1;whiteSpace=wrap;html=1;fillColor=#fad7ac;strokeColor=#b46504;" vertex="1" parent="1">
          <mxGeometry x="240" y="90" width="120" height="30" as="geometry" />
        </mxCell>
        <mxCell id="mCFDCRky8Mi1W4elYaA0-13" value="研报编辑" style="rounded=1;whiteSpace=wrap;html=1;fillColor=#dae8fc;strokeColor=#6c8ebf;verticalAlign=top;arcSize=7;" vertex="1" parent="1">
          <mxGeometry x="230" y="170" width="120" height="170" as="geometry" />
        </mxCell>
        <mxCell id="mCFDCRky8Mi1W4elYaA0-14" value="研报增删改查" style="rounded=1;whiteSpace=wrap;html=1;fillColor=#fad7ac;strokeColor=#b46504;" vertex="1" parent="1">
          <mxGeometry x="240" y="193" width="120" height="30" as="geometry" />
        </mxCell>
        <mxCell id="mCFDCRky8Mi1W4elYaA0-18" value="生产中心数据库" style="shape=cylinder3;whiteSpace=wrap;html=1;boundedLbl=1;backgroundOutline=1;size=15;fillColor=#dae8fc;strokeColor=#6c8ebf;" vertex="1" parent="1">
          <mxGeometry x="175" y="416.1" width="190" height="60" as="geometry" />
        </mxCell>
        <mxCell id="mCFDCRky8Mi1W4elYaA0-19" value="&lt;br&gt;1. 生产中心提供研报的接口、存储标准&lt;br&gt;&lt;br&gt;2.管理中心、生产中心通过EAIP传送获取研报相关数据&lt;br&gt;&lt;br&gt;3.研报相关数据存储在生产中心" style="shape=card;whiteSpace=wrap;html=1;dashed=1;size=20;fillColor=#fff2cc;strokeColor=#d6b656;verticalAlign=top;align=left;" vertex="1" parent="1">
          <mxGeometry x="630" y="270" width="130" height="190" as="geometry" />
        </mxCell>
        <mxCell id="mCFDCRky8Mi1W4elYaA0-20" value="管理中心" style="rounded=1;whiteSpace=wrap;html=1;dashed=1;fillColor=#bac8d3;strokeColor=#23445d;" vertex="1" parent="1">
          <mxGeometry x="640" y="155" width="120" height="60" as="geometry" />
        </mxCell>
        <mxCell id="mCFDCRky8Mi1W4elYaA0-23" value="" style="shape=flexArrow;endArrow=classic;startArrow=classic;html=1;rounded=0;exitX=0.5;exitY=0;exitDx=0;exitDy=0;exitPerimeter=0;entryX=0.472;entryY=1.013;entryDx=0;entryDy=0;entryPerimeter=0;dashed=1;fillColor=#e1d5e7;strokeColor=#9673a6;width=29;endSize=6.52;" edge="1" parent="1" source="mCFDCRky8Mi1W4elYaA0-18">
          <mxGeometry width="100" height="100" relative="1" as="geometry">
            <mxPoint x="365" y="306.1" as="sourcePoint" />
            <mxPoint x="272.1199999999999" y="360" as="targetPoint" />
          </mxGeometry>
        </mxCell>
        <mxCell id="mCFDCRky8Mi1W4elYaA0-26" value="人员信息" style="rounded=1;whiteSpace=wrap;html=1;fillColor=#dae8fc;strokeColor=#6c8ebf;verticalAlign=top;arcSize=7;" vertex="1" parent="1">
          <mxGeometry x="370" y="100" width="120" height="30" as="geometry" />
        </mxCell>
        <mxCell id="mCFDCRky8Mi1W4elYaA0-27" value="指标数据" style="rounded=1;whiteSpace=wrap;html=1;fillColor=#dae8fc;strokeColor=#6c8ebf;verticalAlign=top;arcSize=7;" vertex="1" parent="1">
          <mxGeometry x="370" y="140" width="120" height="30" as="geometry" />
        </mxCell>
        <mxCell id="mCFDCRky8Mi1W4elYaA0-28" value="指标算子库" style="rounded=1;whiteSpace=wrap;html=1;fillColor=#dae8fc;strokeColor=#6c8ebf;verticalAlign=top;arcSize=7;" vertex="1" parent="1">
          <mxGeometry x="370" y="180" width="120" height="30" as="geometry" />
        </mxCell>
        <mxCell id="mCFDCRky8Mi1W4elYaA0-29" value="免责声明配置" style="rounded=1;whiteSpace=wrap;html=1;fillColor=#fad7ac;strokeColor=#b46504;" vertex="1" parent="1">
          <mxGeometry x="240" y="228" width="120" height="30" as="geometry" />
        </mxCell>
        <mxCell id="mCFDCRky8Mi1W4elYaA0-30" value="水印配置" style="rounded=1;whiteSpace=wrap;html=1;fillColor=#fad7ac;strokeColor=#b46504;" vertex="1" parent="1">
          <mxGeometry x="240" y="264" width="120" height="30" as="geometry" />
        </mxCell>
        <mxCell id="mCFDCRky8Mi1W4elYaA0-31" value="多样式配置" style="rounded=1;whiteSpace=wrap;html=1;fillColor=#fad7ac;strokeColor=#b46504;" vertex="1" parent="1">
          <mxGeometry x="240" y="300" width="120" height="30" as="geometry" />
        </mxCell>
        <mxCell id="mCFDCRky8Mi1W4elYaA0-32" value="EAIP传输" style="html=1;shadow=0;dashed=1;align=center;verticalAlign=middle;shape=mxgraph.arrows2.twoWayArrow;dy=0.6;dx=35;fillColor=#e1d5e7;strokeColor=#9673a6;gradientColor=none;fillStyle=solid;" vertex="1" parent="1">
          <mxGeometry x="500" y="155" width="140" height="60" as="geometry" />
        </mxCell>
      </root>
    </mxGraphModel>
  </diagram>
</mxfile>
